<?xml version="1.0" encoding="UTF-8"?>
<svg xmlns="http://www.w3.org/2000/svg" xmlns:xlink="http://www.w3.org/1999/xlink" width="32px" height="32px" viewBox="0 0 32 32" version="1.1">
<g id="surface1">
<path style=" stroke:none;fill-rule:nonzero;fill:rgb(99.215686%,99.607843%,99.607843%);fill-opacity:1;" d="M 0 0 C 10.558594 0 21.121094 0 32 0 C 32 10.558594 32 21.121094 32 32 C 21.441406 32 10.878906 32 0 32 C 0 21.441406 0 10.878906 0 0 Z M 0 0 "/>
<path style=" stroke:none;fill-rule:nonzero;fill:rgb(11.764706%,27.843139%,45.490196%);fill-opacity:1;" d="M 20.011719 6.175781 C 20.132812 6.226562 20.25 6.277344 20.371094 6.324219 C 22.796875 7.328125 24.859375 9.445312 25.910156 11.839844 C 26.425781 13.105469 26.800781 14.527344 26.820312 15.894531 C 26.820312 15.980469 26.824219 16.066406 26.828125 16.15625 C 26.785156 16.527344 26.605469 16.800781 26.320312 17.039062 C 26.097656 17.113281 25.964844 17.128906 25.734375 17.132812 C 25.664062 17.132812 25.59375 17.132812 25.519531 17.132812 C 25.402344 17.132812 25.402344 17.132812 25.28125 17.132812 C 25.199219 17.132812 25.117188 17.132812 25.03125 17.132812 C 24.753906 17.132812 24.472656 17.136719 24.195312 17.136719 C 23.996094 17.136719 23.796875 17.136719 23.597656 17.136719 C 22.996094 17.140625 22.398438 17.140625 21.796875 17.140625 C 21.628906 17.140625 21.460938 17.140625 21.289062 17.140625 C 20.238281 17.144531 19.1875 17.144531 18.136719 17.148438 C 17.894531 17.148438 17.648438 17.148438 17.40625 17.148438 C 17.316406 17.148438 17.316406 17.148438 17.222656 17.148438 C 16.242188 17.148438 15.261719 17.152344 14.28125 17.15625 C 13.273438 17.160156 12.269531 17.160156 11.261719 17.160156 C 10.695312 17.160156 10.132812 17.160156 9.566406 17.164062 C 9.035156 17.167969 8.503906 17.167969 7.972656 17.167969 C 7.777344 17.167969 7.582031 17.167969 7.386719 17.167969 C 7.121094 17.171875 6.855469 17.167969 6.585938 17.167969 C 6.511719 17.167969 6.433594 17.171875 6.351562 17.171875 C 6 17.167969 5.753906 17.15625 5.472656 16.933594 C 5.015625 16.433594 5.164062 15.589844 5.183594 14.953125 C 5.222656 14.378906 5.359375 13.832031 5.519531 13.28125 C 5.546875 13.191406 5.570312 13.105469 5.59375 13.015625 C 5.667969 12.78125 5.753906 12.550781 5.839844 12.320312 C 5.886719 12.191406 5.886719 12.191406 5.9375 12.058594 C 6.816406 9.835938 8.5 8.140625 10.496094 6.890625 C 10.59375 6.828125 10.691406 6.765625 10.789062 6.699219 C 11.203125 6.429688 11.628906 6.242188 12.089844 6.070312 C 12.164062 6.042969 12.238281 6.015625 12.3125 5.984375 C 14.742188 5.097656 17.640625 5.15625 20.011719 6.175781 Z M 20.011719 6.175781 "/>
<path style=" stroke:none;fill-rule:nonzero;fill:rgb(15.686275%,30.19608%,45.882353%);fill-opacity:1;" d="M 6.175781 18.550781 C 6.246094 18.550781 6.316406 18.550781 6.390625 18.550781 C 6.46875 18.550781 6.546875 18.550781 6.625 18.550781 C 6.707031 18.550781 6.792969 18.550781 6.875 18.546875 C 7.15625 18.546875 7.433594 18.546875 7.710938 18.546875 C 7.910156 18.546875 8.109375 18.546875 8.308594 18.546875 C 8.796875 18.546875 9.28125 18.546875 9.765625 18.546875 C 10.160156 18.546875 10.554688 18.546875 10.949219 18.546875 C 12.066406 18.546875 13.1875 18.546875 14.304688 18.546875 C 14.394531 18.546875 14.394531 18.546875 14.488281 18.546875 C 14.546875 18.546875 14.605469 18.546875 14.667969 18.546875 C 15.648438 18.546875 16.628906 18.542969 17.605469 18.542969 C 18.609375 18.542969 19.613281 18.542969 20.617188 18.542969 C 21.183594 18.542969 21.746094 18.542969 22.3125 18.539062 C 22.839844 18.539062 23.371094 18.539062 23.902344 18.539062 C 24.097656 18.539062 24.292969 18.539062 24.488281 18.539062 C 24.753906 18.539062 25.019531 18.539062 25.285156 18.539062 C 25.363281 18.539062 25.441406 18.539062 25.519531 18.539062 C 25.625 18.539062 25.625 18.539062 25.734375 18.539062 C 25.796875 18.539062 25.859375 18.539062 25.921875 18.539062 C 26.078125 18.558594 26.078125 18.558594 26.320312 18.71875 C 26.355469 19.210938 26.355469 19.210938 26.238281 19.441406 C 26.019531 19.515625 25.886719 19.53125 25.65625 19.53125 C 25.585938 19.53125 25.515625 19.53125 25.441406 19.53125 C 25.363281 19.53125 25.289062 19.53125 25.207031 19.53125 C 25.125 19.53125 25.042969 19.53125 24.957031 19.53125 C 24.679688 19.535156 24.402344 19.535156 24.125 19.535156 C 23.925781 19.535156 23.730469 19.535156 23.53125 19.535156 C 22.933594 19.539062 22.339844 19.539062 21.742188 19.539062 C 21.464844 19.539062 21.183594 19.539062 20.902344 19.539062 C 19.972656 19.542969 19.039062 19.542969 18.105469 19.542969 C 17.867188 19.542969 17.625 19.542969 17.382812 19.542969 C 17.292969 19.542969 17.292969 19.542969 17.199219 19.542969 C 16.226562 19.542969 15.25 19.546875 14.277344 19.550781 C 13.277344 19.550781 12.277344 19.554688 11.277344 19.554688 C 10.714844 19.554688 10.152344 19.554688 9.589844 19.554688 C 9.0625 19.558594 8.535156 19.558594 8.007812 19.558594 C 7.8125 19.558594 7.621094 19.558594 7.425781 19.558594 C 7.160156 19.5625 6.898438 19.558594 6.632812 19.558594 C 6.554688 19.558594 6.476562 19.5625 6.398438 19.5625 C 5.882812 19.558594 5.882812 19.558594 5.667969 19.375 C 5.566406 19.109375 5.613281 18.910156 5.679688 18.640625 C 5.863281 18.546875 5.96875 18.550781 6.175781 18.550781 Z M 6.175781 18.550781 "/>
<path style=" stroke:none;fill-rule:nonzero;fill:rgb(13.333334%,28.235295%,45.09804%);fill-opacity:1;" d="M 7.601562 20.859375 C 7.675781 20.859375 7.75 20.859375 7.824219 20.859375 C 8.078125 20.855469 8.328125 20.859375 8.578125 20.859375 C 8.757812 20.859375 8.9375 20.855469 9.117188 20.855469 C 9.605469 20.855469 10.089844 20.855469 10.578125 20.855469 C 10.988281 20.855469 11.394531 20.855469 11.800781 20.855469 C 12.8125 20.855469 13.828125 20.855469 14.84375 20.855469 C 15.722656 20.855469 16.605469 20.855469 17.488281 20.851562 C 18.390625 20.851562 19.296875 20.851562 20.199219 20.851562 C 20.707031 20.851562 21.214844 20.851562 21.722656 20.851562 C 22.203125 20.847656 22.679688 20.847656 23.15625 20.851562 C 23.332031 20.851562 23.507812 20.851562 23.683594 20.847656 C 23.921875 20.847656 24.160156 20.847656 24.398438 20.851562 C 24.46875 20.847656 24.539062 20.847656 24.613281 20.847656 C 25.085938 20.851562 25.085938 20.851562 25.257812 20.988281 C 25.414062 21.191406 25.390625 21.347656 25.359375 21.601562 C 25.257812 21.734375 25.257812 21.734375 25.121094 21.839844 C 24.875 21.863281 24.644531 21.871094 24.398438 21.871094 C 24.324219 21.871094 24.246094 21.871094 24.171875 21.871094 C 23.917969 21.875 23.667969 21.871094 23.414062 21.871094 C 23.234375 21.871094 23.054688 21.875 22.875 21.875 C 22.382812 21.875 21.894531 21.875 21.402344 21.875 C 20.996094 21.875 20.585938 21.875 20.179688 21.875 C 19.160156 21.875 18.140625 21.875 17.121094 21.875 C 16.238281 21.875 15.351562 21.875 14.46875 21.878906 C 13.558594 21.878906 12.648438 21.878906 11.742188 21.878906 C 11.230469 21.878906 10.722656 21.878906 10.210938 21.882812 C 9.730469 21.882812 9.25 21.882812 8.773438 21.878906 C 8.59375 21.878906 8.417969 21.878906 8.242188 21.882812 C 8.003906 21.882812 7.761719 21.882812 7.523438 21.878906 C 7.453125 21.882812 7.382812 21.882812 7.308594 21.882812 C 6.839844 21.875 6.839844 21.875 6.632812 21.691406 C 6.527344 21.445312 6.5625 21.292969 6.640625 21.039062 C 6.957031 20.828125 7.230469 20.859375 7.601562 20.859375 Z M 7.601562 20.859375 "/>
<path style=" stroke:none;fill-rule:nonzero;fill:rgb(12.156863%,27.450982%,45.490196%);fill-opacity:1;" d="M 8.558594 23.28125 C 8.757812 23.257812 8.9375 23.246094 9.136719 23.25 C 9.195312 23.25 9.257812 23.25 9.320312 23.25 C 9.519531 23.246094 9.722656 23.25 9.925781 23.25 C 10.070312 23.25 10.214844 23.25 10.359375 23.246094 C 10.753906 23.246094 11.148438 23.246094 11.539062 23.246094 C 11.953125 23.25 12.363281 23.246094 12.773438 23.246094 C 13.464844 23.246094 14.15625 23.246094 14.847656 23.25 C 15.648438 23.25 16.445312 23.25 17.246094 23.25 C 17.933594 23.246094 18.617188 23.246094 19.304688 23.246094 C 19.714844 23.246094 20.125 23.25 20.535156 23.246094 C 20.917969 23.246094 21.304688 23.246094 21.691406 23.25 C 21.832031 23.25 21.972656 23.25 22.113281 23.25 C 22.308594 23.246094 22.5 23.25 22.695312 23.25 C 22.777344 23.25 22.777344 23.25 22.863281 23.246094 C 23.09375 23.25 23.246094 23.253906 23.433594 23.390625 C 23.558594 23.578125 23.554688 23.699219 23.519531 23.921875 C 23.433594 24.050781 23.433594 24.050781 23.28125 24.160156 C 23.078125 24.183594 22.898438 24.191406 22.695312 24.191406 C 22.605469 24.191406 22.605469 24.191406 22.515625 24.191406 C 22.316406 24.191406 22.113281 24.191406 21.914062 24.191406 C 21.769531 24.191406 21.625 24.191406 21.480469 24.191406 C 21.089844 24.195312 20.699219 24.191406 20.308594 24.191406 C 19.898438 24.191406 19.488281 24.191406 19.082031 24.191406 C 18.394531 24.191406 17.707031 24.191406 17.019531 24.191406 C 16.226562 24.191406 15.429688 24.191406 14.636719 24.191406 C 13.953125 24.191406 13.273438 24.191406 12.589844 24.191406 C 12.183594 24.191406 11.777344 24.191406 11.371094 24.191406 C 10.988281 24.195312 10.601562 24.191406 10.21875 24.191406 C 10.078125 24.191406 9.9375 24.191406 9.796875 24.191406 C 9.605469 24.191406 9.414062 24.191406 9.222656 24.191406 C 9.140625 24.191406 9.140625 24.191406 9.054688 24.191406 C 8.824219 24.1875 8.675781 24.183594 8.484375 24.050781 C 8.363281 23.863281 8.371094 23.738281 8.398438 23.519531 C 8.453125 23.441406 8.503906 23.363281 8.558594 23.28125 Z M 8.558594 23.28125 "/>
<path style=" stroke:none;fill-rule:nonzero;fill:rgb(14.117648%,28.627452%,44.705883%);fill-opacity:1;" d="M 12.328125 25.582031 C 12.394531 25.578125 12.460938 25.578125 12.53125 25.578125 C 12.640625 25.578125 12.640625 25.578125 12.75 25.582031 C 12.828125 25.582031 12.90625 25.582031 12.984375 25.582031 C 13.238281 25.578125 13.496094 25.582031 13.75 25.582031 C 13.925781 25.582031 14.105469 25.582031 14.28125 25.582031 C 14.652344 25.582031 15.023438 25.582031 15.394531 25.582031 C 15.871094 25.585938 16.34375 25.585938 16.820312 25.585938 C 17.1875 25.585938 17.550781 25.585938 17.917969 25.585938 C 18.09375 25.585938 18.269531 25.585938 18.445312 25.585938 C 18.6875 25.585938 18.933594 25.585938 19.179688 25.589844 C 19.289062 25.589844 19.289062 25.589844 19.398438 25.589844 C 19.902344 25.589844 19.902344 25.589844 20.078125 25.679688 C 20.117188 25.820312 20.117188 25.820312 20.140625 25.996094 C 20.148438 26.050781 20.15625 26.109375 20.164062 26.167969 C 20.160156 26.320312 20.160156 26.320312 20 26.480469 C 19.855469 26.5 19.855469 26.5 19.675781 26.5 C 19.605469 26.5 19.539062 26.503906 19.46875 26.503906 C 19.394531 26.503906 19.320312 26.503906 19.242188 26.503906 C 19.125 26.503906 19.125 26.503906 19.003906 26.503906 C 18.742188 26.503906 18.484375 26.503906 18.222656 26.503906 C 18.042969 26.503906 17.863281 26.503906 17.679688 26.503906 C 17.300781 26.503906 16.921875 26.503906 16.542969 26.503906 C 16.058594 26.503906 15.570312 26.507812 15.085938 26.507812 C 14.710938 26.507812 14.339844 26.507812 13.964844 26.507812 C 13.789062 26.507812 13.609375 26.507812 13.429688 26.511719 C 13.179688 26.511719 12.925781 26.511719 12.675781 26.511719 C 12.566406 26.511719 12.566406 26.511719 12.449219 26.511719 C 12.382812 26.511719 12.316406 26.511719 12.246094 26.511719 C 12.15625 26.511719 12.15625 26.511719 12.066406 26.511719 C 11.921875 26.480469 11.921875 26.480469 11.761719 26.238281 C 11.734375 25.996094 11.734375 25.996094 11.761719 25.761719 C 12.003906 25.597656 12.054688 25.578125 12.328125 25.582031 Z M 12.328125 25.582031 "/>
<path style=" stroke:none;fill-rule:nonzero;fill:rgb(27.450982%,37.64706%,49.019608%);fill-opacity:1;" d="M 6.878906 20.878906 C 9.199219 20.875 11.519531 20.871094 13.839844 20.867188 C 14.113281 20.867188 14.386719 20.867188 14.660156 20.867188 C 14.742188 20.867188 14.742188 20.867188 14.824219 20.867188 C 15.707031 20.867188 16.589844 20.863281 17.472656 20.863281 C 18.378906 20.859375 19.285156 20.859375 20.191406 20.855469 C 20.699219 20.855469 21.207031 20.855469 21.714844 20.855469 C 22.195312 20.851562 22.671875 20.851562 23.152344 20.851562 C 23.328125 20.851562 23.503906 20.851562 23.679688 20.851562 C 23.917969 20.851562 24.160156 20.851562 24.398438 20.851562 C 24.46875 20.851562 24.539062 20.851562 24.613281 20.847656 C 25.085938 20.851562 25.085938 20.851562 25.257812 20.984375 C 25.410156 21.183594 25.375 21.359375 25.359375 21.601562 C 25.28125 21.574219 25.203125 21.546875 25.121094 21.519531 C 25.09375 21.386719 25.066406 21.257812 25.039062 21.121094 C 19.046875 21.121094 13.054688 21.121094 6.878906 21.121094 C 6.878906 21.039062 6.878906 20.960938 6.878906 20.878906 Z M 6.878906 20.878906 "/>
<path style=" stroke:none;fill-rule:nonzero;fill:rgb(15.686275%,26.274511%,43.137255%);fill-opacity:1;" d="M 8.558594 23.28125 C 8.757812 23.257812 8.9375 23.246094 9.136719 23.25 C 9.195312 23.25 9.257812 23.25 9.320312 23.25 C 9.519531 23.246094 9.722656 23.25 9.925781 23.25 C 10.070312 23.25 10.214844 23.25 10.359375 23.246094 C 10.753906 23.246094 11.148438 23.246094 11.539062 23.246094 C 11.953125 23.25 12.363281 23.246094 12.773438 23.246094 C 13.464844 23.246094 14.15625 23.246094 14.847656 23.25 C 15.648438 23.25 16.445312 23.25 17.246094 23.25 C 17.933594 23.246094 18.617188 23.246094 19.304688 23.246094 C 19.714844 23.246094 20.125 23.25 20.535156 23.246094 C 20.917969 23.246094 21.304688 23.246094 21.691406 23.25 C 21.832031 23.25 21.972656 23.25 22.113281 23.25 C 22.308594 23.246094 22.5 23.25 22.695312 23.25 C 22.777344 23.25 22.777344 23.25 22.863281 23.246094 C 23.09375 23.25 23.246094 23.253906 23.433594 23.390625 C 23.558594 23.578125 23.554688 23.699219 23.519531 23.921875 C 23.433594 24.050781 23.433594 24.050781 23.28125 24.160156 C 23.078125 24.183594 22.898438 24.191406 22.695312 24.191406 C 22.605469 24.191406 22.605469 24.191406 22.515625 24.191406 C 22.316406 24.191406 22.113281 24.191406 21.914062 24.191406 C 21.769531 24.191406 21.625 24.191406 21.480469 24.191406 C 21.089844 24.195312 20.699219 24.191406 20.308594 24.191406 C 19.898438 24.191406 19.488281 24.191406 19.082031 24.191406 C 18.394531 24.191406 17.707031 24.191406 17.019531 24.191406 C 16.226562 24.191406 15.429688 24.191406 14.636719 24.191406 C 13.953125 24.191406 13.273438 24.191406 12.589844 24.191406 C 12.183594 24.191406 11.777344 24.191406 11.371094 24.191406 C 10.988281 24.195312 10.601562 24.191406 10.21875 24.191406 C 10.078125 24.191406 9.9375 24.191406 9.796875 24.191406 C 9.605469 24.191406 9.414062 24.191406 9.222656 24.191406 C 9.140625 24.191406 9.140625 24.191406 9.054688 24.191406 C 8.824219 24.1875 8.675781 24.183594 8.484375 24.050781 C 8.363281 23.863281 8.371094 23.738281 8.398438 23.519531 C 8.453125 23.441406 8.503906 23.363281 8.558594 23.28125 Z M 8.960938 23.359375 C 8.960938 23.414062 8.960938 23.464844 8.960938 23.519531 C 8.90625 23.519531 8.855469 23.519531 8.800781 23.519531 C 8.773438 23.625 8.746094 23.730469 8.71875 23.839844 C 8.800781 23.839844 8.878906 23.839844 8.960938 23.839844 C 8.960938 23.917969 8.960938 24 8.960938 24.078125 C 10.789062 24.082031 12.621094 24.085938 14.449219 24.089844 C 15.300781 24.089844 16.152344 24.089844 17 24.09375 C 17.742188 24.09375 18.480469 24.09375 19.222656 24.09375 C 19.613281 24.09375 20.007812 24.097656 20.398438 24.097656 C 20.769531 24.097656 21.136719 24.097656 21.503906 24.097656 C 21.640625 24.097656 21.777344 24.097656 21.914062 24.097656 C 22.097656 24.101562 22.28125 24.101562 22.46875 24.097656 C 22.570312 24.097656 22.675781 24.097656 22.78125 24.101562 C 23.023438 24.082031 23.15625 24.046875 23.359375 23.921875 C 23.3125 23.730469 23.261719 23.546875 23.199219 23.359375 C 18.5 23.359375 13.800781 23.359375 8.960938 23.359375 Z M 8.960938 23.359375 "/>
<path style=" stroke:none;fill-rule:nonzero;fill:rgb(21.176471%,32.941177%,45.09804%);fill-opacity:1;" d="M 5.359375 16.71875 C 5.464844 16.71875 5.570312 16.71875 5.679688 16.71875 C 5.679688 16.800781 5.679688 16.878906 5.679688 16.960938 C 12.492188 16.960938 19.300781 16.960938 26.320312 16.960938 C 26.070312 17.125 26.015625 17.140625 25.734375 17.140625 C 25.628906 17.140625 25.628906 17.140625 25.519531 17.140625 C 25.441406 17.140625 25.363281 17.140625 25.28125 17.140625 C 25.199219 17.140625 25.117188 17.144531 25.03125 17.144531 C 24.753906 17.144531 24.472656 17.144531 24.195312 17.144531 C 23.996094 17.144531 23.792969 17.144531 23.59375 17.148438 C 23.050781 17.148438 22.507812 17.148438 21.964844 17.148438 C 21.625 17.148438 21.289062 17.148438 20.949219 17.152344 C 20.011719 17.152344 19.070312 17.152344 18.132812 17.152344 C 18.042969 17.152344 18.042969 17.152344 17.949219 17.152344 C 17.828125 17.152344 17.707031 17.152344 17.585938 17.152344 C 17.523438 17.152344 17.464844 17.152344 17.402344 17.152344 C 17.339844 17.152344 17.28125 17.152344 17.21875 17.152344 C 16.238281 17.15625 15.257812 17.15625 14.277344 17.160156 C 13.269531 17.164062 12.261719 17.164062 11.253906 17.164062 C 10.6875 17.164062 10.125 17.164062 9.558594 17.167969 C 9.027344 17.167969 8.496094 17.167969 7.964844 17.167969 C 7.765625 17.167969 7.570312 17.167969 7.375 17.167969 C 7.109375 17.171875 6.84375 17.171875 6.578125 17.167969 C 6.460938 17.171875 6.460938 17.171875 6.34375 17.171875 C 5.761719 17.164062 5.761719 17.164062 5.507812 16.917969 C 5.460938 16.851562 5.410156 16.785156 5.359375 16.71875 Z M 5.359375 16.71875 "/>
<path style=" stroke:none;fill-rule:nonzero;fill:rgb(88.627452%,94.117647%,96.470588%);fill-opacity:1;" d="M 9.039062 7.679688 C 9.121094 7.707031 9.199219 7.734375 9.28125 7.761719 C 9.210938 7.820312 9.144531 7.882812 9.070312 7.949219 C 8.578125 8.394531 8.101562 8.839844 7.679688 9.359375 C 7.589844 9.066406 7.589844 9.066406 7.691406 8.835938 C 7.855469 8.621094 7.996094 8.519531 8.238281 8.398438 C 8.292969 8.398438 8.34375 8.398438 8.398438 8.398438 C 8.425781 8.351562 8.449219 8.300781 8.476562 8.25 C 8.625 7.945312 8.726562 7.835938 9.039062 7.679688 Z M 9.039062 7.679688 "/>
<path style=" stroke:none;fill-rule:nonzero;fill:rgb(21.960784%,33.333334%,44.705883%);fill-opacity:1;" d="M 8.558594 23.28125 C 8.808594 23.265625 8.808594 23.265625 9.039062 23.28125 C 9.011719 23.359375 8.988281 23.4375 8.960938 23.519531 C 8.90625 23.519531 8.855469 23.519531 8.800781 23.519531 C 8.773438 23.625 8.746094 23.730469 8.71875 23.839844 C 8.800781 23.839844 8.878906 23.839844 8.960938 23.839844 C 8.960938 23.945312 8.960938 24.050781 8.960938 24.160156 C 8.578125 24.101562 8.578125 24.101562 8.398438 23.921875 C 8.371094 23.621094 8.386719 23.539062 8.558594 23.28125 Z M 8.558594 23.28125 "/>
<path style=" stroke:none;fill-rule:nonzero;fill:rgb(29.411766%,40.000001%,50.588238%);fill-opacity:1;" d="M 5.441406 13.601562 C 5.464844 13.601562 5.492188 13.601562 5.519531 13.601562 C 5.507812 13.796875 5.496094 13.996094 5.484375 14.195312 C 5.480469 14.28125 5.480469 14.28125 5.476562 14.367188 C 5.449219 14.789062 5.449219 14.789062 5.359375 14.878906 C 5.347656 15 5.339844 15.117188 5.335938 15.238281 C 5.332031 15.308594 5.328125 15.382812 5.324219 15.457031 C 5.320312 15.53125 5.316406 15.605469 5.316406 15.683594 C 5.3125 15.761719 5.308594 15.835938 5.304688 15.914062 C 5.296875 16.101562 5.289062 16.292969 5.28125 16.480469 C 5.253906 16.480469 5.226562 16.480469 5.199219 16.480469 C 5.171875 15.488281 5.164062 14.5625 5.441406 13.601562 Z M 5.441406 13.601562 "/>
<path style=" stroke:none;fill-rule:nonzero;fill:rgb(17.647059%,29.019609%,43.529412%);fill-opacity:1;" d="M 10.878906 6.640625 C 10.933594 6.667969 10.984375 6.691406 11.039062 6.71875 C 10.945312 7 10.882812 7.046875 10.640625 7.199219 C 10.507812 7.257812 10.375 7.308594 10.238281 7.359375 C 10.160156 7.398438 10.160156 7.398438 10.078125 7.441406 C 10 7.386719 9.921875 7.335938 9.839844 7.28125 C 10.007812 7.171875 10.179688 7.0625 10.351562 6.953125 C 10.398438 6.921875 10.445312 6.894531 10.496094 6.859375 C 10.621094 6.78125 10.75 6.710938 10.878906 6.640625 Z M 10.878906 6.640625 "/>
<path style=" stroke:none;fill-rule:nonzero;fill:rgb(20%,31.764707%,45.09804%);fill-opacity:1;" d="M 6.160156 11.601562 C 6.210938 11.625 6.265625 11.652344 6.320312 11.679688 C 6.28125 12.191406 6.28125 12.191406 6.074219 12.433594 C 6 12.496094 6 12.496094 5.921875 12.558594 C 5.824219 12.269531 5.867188 12.214844 5.996094 11.945312 C 6.039062 11.847656 6.039062 11.847656 6.085938 11.75 C 6.109375 11.699219 6.136719 11.652344 6.160156 11.601562 Z M 6.160156 11.601562 "/>
<path style=" stroke:none;fill-rule:nonzero;fill:rgb(21.960784%,33.333334%,46.666667%);fill-opacity:1;" d="M 7.199219 9.839844 C 7.3125 10.175781 7.191406 10.328125 7.039062 10.640625 C 6.988281 10.691406 6.933594 10.746094 6.878906 10.800781 C 6.800781 10.773438 6.722656 10.746094 6.640625 10.71875 C 6.824219 10.429688 7.007812 10.140625 7.199219 9.839844 Z M 7.199219 9.839844 "/>
<path style=" stroke:none;fill-rule:nonzero;fill:rgb(84.705883%,90.196079%,93.333334%);fill-opacity:1;" d="M 12.800781 5.839844 C 12.539062 6.011719 12.277344 6.109375 11.984375 6.210938 C 11.933594 6.226562 11.878906 6.246094 11.828125 6.265625 C 11.699219 6.3125 11.570312 6.355469 11.441406 6.398438 C 11.519531 6.160156 11.519531 6.160156 11.664062 6.074219 C 11.722656 6.050781 11.78125 6.027344 11.839844 6 C 11.886719 5.96875 11.933594 5.941406 11.980469 5.910156 C 12.253906 5.804688 12.507812 5.832031 12.800781 5.839844 Z M 12.800781 5.839844 "/>
<path style=" stroke:none;fill-rule:nonzero;fill:rgb(85.09804%,90.588236%,93.725491%);fill-opacity:1;" d="M 10.238281 6.800781 C 10.320312 6.828125 10.398438 6.851562 10.480469 6.878906 C 10.167969 7.132812 9.847656 7.367188 9.519531 7.601562 C 9.46875 7.519531 9.414062 7.441406 9.359375 7.359375 C 9.445312 7.332031 9.445312 7.332031 9.53125 7.304688 C 9.734375 7.210938 9.847656 7.132812 10.011719 6.984375 C 10.125 6.894531 10.125 6.894531 10.238281 6.800781 Z M 10.238281 6.800781 "/>
<path style=" stroke:none;fill-rule:nonzero;fill:rgb(15.294118%,28.627452%,41.568628%);fill-opacity:1;" d="M 5.28125 15.679688 C 5.417969 15.957031 5.464844 16.085938 5.488281 16.378906 C 5.496094 16.445312 5.503906 16.507812 5.507812 16.574219 C 5.511719 16.621094 5.515625 16.671875 5.519531 16.71875 C 5.441406 16.71875 5.363281 16.71875 5.28125 16.71875 C 5.28125 16.375 5.28125 16.035156 5.28125 15.679688 Z M 5.28125 15.679688 "/>
<path style=" stroke:none;fill-rule:nonzero;fill:rgb(21.176471%,32.156864%,43.529412%);fill-opacity:1;" d="M 23.039062 23.28125 C 23.269531 23.324219 23.347656 23.347656 23.519531 23.519531 C 23.550781 23.714844 23.550781 23.714844 23.519531 23.921875 C 23.359375 24.066406 23.359375 24.066406 23.199219 24.160156 C 23.199219 24.082031 23.199219 24 23.199219 23.921875 C 23.253906 23.921875 23.304688 23.921875 23.359375 23.921875 C 23.332031 23.871094 23.308594 23.824219 23.28125 23.773438 C 23.199219 23.601562 23.199219 23.601562 23.199219 23.359375 C 23.148438 23.332031 23.09375 23.308594 23.039062 23.28125 Z M 23.039062 23.28125 "/>
<path style=" stroke:none;fill-rule:nonzero;fill:rgb(89.803922%,94.901961%,95.294118%);fill-opacity:1;" d="M 6.800781 9.921875 C 6.851562 10 6.90625 10.078125 6.960938 10.160156 C 6.886719 10.40625 6.820312 10.539062 6.640625 10.71875 C 6.585938 10.695312 6.535156 10.667969 6.480469 10.640625 C 6.503906 10.59375 6.527344 10.550781 6.550781 10.503906 C 6.644531 10.3125 6.722656 10.117188 6.800781 9.921875 Z M 6.800781 9.921875 "/>
<path style=" stroke:none;fill-rule:nonzero;fill:rgb(21.176471%,33.333334%,44.313726%);fill-opacity:1;" d="M 6.71875 20.960938 C 6.773438 20.988281 6.824219 21.011719 6.878906 21.039062 C 6.929688 21.203125 6.929688 21.203125 6.960938 21.359375 C 6.90625 21.359375 6.855469 21.359375 6.800781 21.359375 C 6.800781 21.4375 6.800781 21.519531 6.800781 21.601562 C 6.722656 21.574219 6.640625 21.546875 6.558594 21.519531 C 6.628906 21.050781 6.628906 21.050781 6.71875 20.960938 Z M 6.71875 20.960938 "/>
<path style=" stroke:none;fill-rule:nonzero;fill:rgb(27.058825%,37.64706%,48.627451%);fill-opacity:1;" d="M 24.800781 10.078125 C 25.066406 10.320312 25.210938 10.554688 25.359375 10.878906 C 25.308594 10.878906 25.253906 10.878906 25.199219 10.878906 C 25.171875 10.828125 25.148438 10.773438 25.121094 10.71875 C 25.039062 10.695312 24.960938 10.667969 24.878906 10.640625 C 24.855469 10.457031 24.828125 10.269531 24.800781 10.078125 Z M 24.800781 10.078125 "/>
<path style=" stroke:none;fill-rule:nonzero;fill:rgb(87.058824%,92.54902%,94.509804%);fill-opacity:1;" d="M 24.238281 9.28125 C 24.371094 9.28125 24.503906 9.28125 24.640625 9.28125 C 24.640625 9.332031 24.640625 9.386719 24.640625 9.441406 C 24.691406 9.464844 24.746094 9.492188 24.800781 9.519531 C 24.773438 9.625 24.746094 9.730469 24.71875 9.839844 C 24.328125 9.460938 24.328125 9.460938 24.238281 9.28125 Z M 24.238281 9.28125 "/>
<path style=" stroke:none;fill-rule:nonzero;fill:rgb(85.882354%,92.156863%,95.294118%);fill-opacity:1;" d="M 25.921875 12 C 26 12 26.078125 12 26.160156 12 C 26.277344 12.363281 26.339844 12.65625 26.320312 13.039062 C 26.199219 12.8125 26.109375 12.585938 26.03125 12.339844 C 26 12.242188 26 12.242188 25.96875 12.144531 C 25.953125 12.097656 25.9375 12.050781 25.921875 12 Z M 25.921875 12 "/>
<path style=" stroke:none;fill-rule:nonzero;fill:rgb(20%,32.156864%,50.196081%);fill-opacity:1;" d="M 19.175781 5.871094 C 19.234375 5.886719 19.296875 5.902344 19.359375 5.921875 C 19.332031 6 19.308594 6.078125 19.28125 6.160156 C 19.121094 6.1875 18.964844 6.210938 18.800781 6.238281 C 18.773438 6.160156 18.746094 6.082031 18.71875 6 C 18.960938 5.839844 18.960938 5.839844 19.175781 5.871094 Z M 19.175781 5.871094 "/>
<path style=" stroke:none;fill-rule:nonzero;fill:rgb(76.47059%,84.313726%,89.019608%);fill-opacity:1;" d="M 17.28125 5.441406 C 17.597656 5.441406 17.914062 5.441406 18.238281 5.441406 C 18.238281 5.492188 18.238281 5.546875 18.238281 5.601562 C 18.292969 5.625 18.34375 5.652344 18.398438 5.679688 C 17.648438 5.601562 17.648438 5.601562 17.28125 5.519531 C 17.28125 5.492188 17.28125 5.46875 17.28125 5.441406 Z M 17.28125 5.441406 "/>
<path style=" stroke:none;fill-rule:nonzero;fill:rgb(30.19608%,40.000001%,50.980395%);fill-opacity:1;" d="M 11.839844 25.679688 C 11.867188 25.734375 11.894531 25.785156 11.921875 25.839844 C 11.894531 25.894531 11.867188 25.945312 11.839844 26 C 11.894531 26 11.945312 26 12 26 C 12 26.160156 12 26.316406 12 26.480469 C 11.878906 26.390625 11.878906 26.390625 11.761719 26.238281 C 11.738281 25.988281 11.738281 25.988281 11.761719 25.761719 C 11.785156 25.734375 11.8125 25.707031 11.839844 25.679688 Z M 11.839844 25.679688 "/>
<path style=" stroke:none;fill-rule:nonzero;fill:rgb(18.82353%,30.19608%,41.960785%);fill-opacity:1;" d="M 21.921875 7.28125 C 22.234375 7.382812 22.382812 7.480469 22.558594 7.761719 C 22.101562 7.609375 22.101562 7.609375 21.921875 7.519531 C 21.921875 7.441406 21.921875 7.363281 21.921875 7.28125 Z M 21.921875 7.28125 "/>
<path style=" stroke:none;fill-rule:nonzero;fill:rgb(19.215687%,32.156864%,49.803922%);fill-opacity:1;" d="M 26 12.320312 C 26.054688 12.425781 26.105469 12.53125 26.160156 12.640625 C 26.082031 12.71875 26 12.796875 25.921875 12.878906 C 25.867188 12.855469 25.8125 12.828125 25.761719 12.800781 C 25.839844 12.640625 25.921875 12.480469 26 12.320312 Z M 26 12.320312 "/>
<path style=" stroke:none;fill-rule:nonzero;fill:rgb(21.176471%,32.156864%,47.058824%);fill-opacity:1;" d="M 22.878906 8 C 23.089844 8.082031 23.183594 8.132812 23.300781 8.328125 C 23.320312 8.378906 23.339844 8.429688 23.359375 8.480469 C 23.28125 8.480469 23.203125 8.480469 23.121094 8.480469 C 22.878906 8.214844 22.878906 8.214844 22.878906 8 Z M 22.878906 8 "/>
<path style=" stroke:none;fill-rule:nonzero;fill:rgb(24.313726%,34.901962%,46.666667%);fill-opacity:1;" d="M 8.878906 8 C 8.878906 8.351562 8.710938 8.460938 8.480469 8.71875 C 8.425781 8.667969 8.375 8.613281 8.320312 8.558594 C 8.503906 8.375 8.691406 8.191406 8.878906 8 Z M 8.878906 8 "/>
<path style=" stroke:none;fill-rule:nonzero;fill:rgb(21.568628%,32.549021%,47.058824%);fill-opacity:1;" d="M 10.320312 6.960938 C 10.371094 6.988281 10.425781 7.011719 10.480469 7.039062 C 10.359375 7.238281 10.359375 7.238281 10.238281 7.441406 C 10.109375 7.414062 9.976562 7.386719 9.839844 7.359375 C 9.90625 7.308594 9.96875 7.257812 10.035156 7.203125 C 10.183594 7.085938 10.183594 7.085938 10.320312 6.960938 Z M 10.320312 6.960938 "/>
<path style=" stroke:none;fill-rule:nonzero;fill:rgb(96.078432%,98.039216%,96.078432%);fill-opacity:1;" d="M 20.320312 26.238281 C 20.371094 26.238281 20.425781 26.238281 20.480469 26.238281 C 20.480469 26.371094 20.480469 26.503906 20.480469 26.640625 C 20.269531 26.640625 20.058594 26.640625 19.839844 26.640625 C 20.078125 26.480469 20.078125 26.480469 20.320312 26.480469 C 20.320312 26.402344 20.320312 26.320312 20.320312 26.238281 Z M 20.320312 26.238281 "/>
<path style=" stroke:none;fill-rule:nonzero;fill:rgb(20.392157%,32.156864%,44.705883%);fill-opacity:1;" d="M 8.238281 8.640625 C 8.320312 8.878906 8.320312 8.878906 8.238281 9.121094 C 8.109375 9.121094 7.976562 9.121094 7.839844 9.121094 C 7.972656 8.960938 8.105469 8.804688 8.238281 8.640625 Z M 8.238281 8.640625 "/>
<path style=" stroke:none;fill-rule:nonzero;fill:rgb(22.745098%,34.117648%,47.450981%);fill-opacity:1;" d="M 9.519531 7.519531 C 9.546875 7.597656 9.574219 7.679688 9.601562 7.761719 C 9.574219 7.8125 9.546875 7.867188 9.519531 7.921875 C 9.355469 7.96875 9.355469 7.96875 9.199219 8 C 9.226562 7.851562 9.226562 7.851562 9.28125 7.679688 C 9.359375 7.628906 9.4375 7.574219 9.519531 7.519531 Z M 9.519531 7.519531 "/>
<path style=" stroke:none;fill-rule:nonzero;fill:rgb(21.176471%,32.549021%,44.705883%);fill-opacity:1;" d="M 20.640625 6.480469 C 20.875 6.566406 21.023438 6.621094 21.199219 6.800781 C 21.121094 6.839844 21.121094 6.839844 21.039062 6.878906 C 20.828125 6.804688 20.828125 6.804688 20.640625 6.71875 C 20.640625 6.640625 20.640625 6.5625 20.640625 6.480469 Z M 20.640625 6.480469 "/>
</g>
</svg>
